<?xml version="1.0" encoding="utf-8"?>
<!-- Svg Vector Icons : http://www.onlinewebfonts.com/icon -->
<!DOCTYPE svg PUBLIC "-//W3C//DTD SVG 1.1//EN" "http://www.w3.org/Graphics/SVG/1.1/DTD/svg11.dtd">
<svg version="1.1" xmlns="http://www.w3.org/2000/svg" xmlns:xlink="http://www.w3.org/1999/xlink" x="0px" y="0px" viewBox="0 0 1000 1000" enable-background="new 0 0 1000 1000" xml:space="preserve">
<metadata> Svg Vector Icons : http://www.onlinewebfonts.com/icon </metadata>
<g><path d="M892,10H108c-53.9,0-98,44.1-98,98v784c0,53.9,44.1,98,98,98h784c53.9,0,98-44.1,98-98V108C990,54.1,945.9,10,892,10z M304,843H157V402h147V843z M230.5,318.7c-49,0-88.2-39.2-88.2-88.2c0-49,39.2-88.2,88.2-88.2s88.2,39.2,88.2,88.2C318.7,279.5,279.5,318.7,230.5,318.7z M843,843H696V583.3c0-39.2-34.3-73.5-73.5-73.5c-39.2,0-73.5,34.3-73.5,73.5V843H402V402h147v58.8c24.5-39.2,78.4-68.6,122.5-68.6c93.1,0,171.5,78.4,171.5,171.5L843,843L843,843z"/></g>
</svg>